<svg width="340" height="360" viewBox="0 0 340 360" fill="none" xmlns="http://www.w3.org/2000/svg">
  <g filter="url(#shadow)">
    <path d="M108 48L136 20H204L232 48L286 72L256 128L234 120V314H106V120L84 128L54 72L108 48Z" fill="#0A0A0A"/>
    <path d="M120 70L144 46H196L220 70L258 88L240 118L214 108V294H126V108L100 118L82 88L120 70Z" fill="#F5F2ED"/>
    <path d="M152 122H188V156H152V122Z" fill="#EE3A24"/>
    <path d="M144 170H196V184H144V170Z" fill="#0A0A0A"/>
  </g>
  <defs>
    <filter id="shadow" x="38" y="16" width="264" height="318" filterUnits="userSpaceOnUse" color-interpolation-filters="sRGB">
      <feFlood flood-opacity="0" result="BackgroundImageFix"/>
      <feColorMatrix in="SourceAlpha" type="matrix" values="0 0 0 0 0 0 0 0 0 0 0 0 0 0 0 0 0 0 127 0" result="hardAlpha"/>
      <feOffset dy="8"/>
      <feGaussianBlur stdDeviation="8"/>
      <feComposite in2="hardAlpha" operator="out"/>
      <feColorMatrix type="matrix" values="0 0 0 0 0.0431373 0 0 0 0 0.0431373 0 0 0 0 0.0431373 0 0 0 0.16 0"/>
      <feBlend mode="normal" in2="BackgroundImageFix" result="effect1_dropShadow_1_1"/>
      <feBlend mode="normal" in="SourceGraphic" in2="effect1_dropShadow_1_1" result="shape"/>
    </filter>
  </defs>
</svg>
