<svg width="360" height="700" viewBox="0 0 360 700" fill="none" xmlns="http://www.w3.org/2000/svg">
  <g filter="url(#shadow)">
    <path d="M180 24C258 24 316 82 324 160L336 294C340 358 342 422 342 488C342 554 340 618 336 676H24C20 618 18 554 18 488C18 422 20 358 24 294L36 160C44 82 102 24 180 24Z" fill="#EE3A24"/>
    <path d="M180 64C240 64 286 108 292 166L302 302C306 364 308 426 308 488C308 550 306 612 302 636H58C54 612 52 550 52 488C52 426 54 364 58 302L68 166C74 108 120 64 180 64Z" fill="#F5F2ED"/>
    <rect x="118" y="188" width="124" height="18" rx="9" fill="#0A0A0A"/>
    <rect x="118" y="498" width="124" height="18" rx="9" fill="#0A0A0A"/>
    <rect x="168" y="178" width="24" height="40" rx="12" fill="#0A0A0A"/>
    <rect x="168" y="488" width="24" height="40" rx="12" fill="#0A0A0A"/>
    <circle cx="110" cy="196" r="26" fill="#EE3A24" stroke="#0A0A0A" stroke-width="14"/>
    <circle cx="250" cy="196" r="26" fill="#EE3A24" stroke="#0A0A0A" stroke-width="14"/>
    <circle cx="110" cy="506" r="26" fill="#EE3A24" stroke="#0A0A0A" stroke-width="14"/>
    <circle cx="250" cy="506" r="26" fill="#EE3A24" stroke="#0A0A0A" stroke-width="14"/>
  </g>
  <defs>
    <filter id="shadow" x="2" y="20" width="356" height="672" filterUnits="userSpaceOnUse" color-interpolation-filters="sRGB">
      <feFlood flood-opacity="0" result="BackgroundImageFix"/>
      <feColorMatrix in="SourceAlpha" type="matrix" values="0 0 0 0 0 0 0 0 0 0 0 0 0 0 0 0 0 0 127 0" result="hardAlpha"/>
      <feOffset dy="8"/>
      <feGaussianBlur stdDeviation="8"/>
      <feComposite in2="hardAlpha" operator="out"/>
      <feColorMatrix type="matrix" values="0 0 0 0 0.0431373 0 0 0 0 0.0431373 0 0 0 0 0.0431373 0 0 0 0.16 0"/>
      <feBlend mode="normal" in2="BackgroundImageFix" result="effect1_dropShadow_1_1"/>
      <feBlend mode="normal" in="SourceGraphic" in2="effect1_dropShadow_1_1" result="shape"/>
    </filter>
  </defs>
</svg>
